<svg xmlns="http://www.w3.org/2000/svg" width="528" height="528" viewBox="0 0 48 48" xml:space="preserve"><path fill="#FFC107" d="m24 45-9-22h18z"/><path fill="#EA9024" d="m25.607 34.995 2.192-2.192.845.844.82-2.006-.251-.252.6-.6 1.958-4.785-.408.408-2.23-2.229L30.316 23h-5.194l1.183 1.183-2.148 2.148-2.237-2.237L23.013 23h-5.016l1.094 1.094-2.192 2.192-.938-.938 1.958 4.786 1.217 1.217-.51.51.821 2.008 1.104-1.104 2.229 2.229-2.038 2.038 2.918 7.133.502-.502.273.273 2.937-7.178-1.765-1.763zm2.112-9.398 2.23 2.229-2.149 2.149-2.229-2.229 2.148-2.149zM18.313 27.7l2.192-2.192 2.237 2.237-2.192 2.192-2.237-2.237zm3.651 3.652 2.192-2.192 2.229 2.229-2.192 2.192-2.229-2.229zm0 7.287 2.229-2.229 2.197 2.198-2.229 2.229-2.197-2.198z"/><path fill="#68352A" d="M30 26a7.957 7.957 0 0 1-3.633-.878A11.106 11.106 0 0 0 27.781 23h-3.556c-.075.094-.146.189-.225.279-.079-.09-.15-.186-.225-.279h-3.556a11.06 11.06 0 0 0 1.414 2.122A7.957 7.957 0 0 1 18 26a7.972 7.972 0 0 1-1.866-.228l1.309 3.199c.186.01.369.029.557.029 2.213 0 4.272-.663 6-1.793A10.927 10.927 0 0 0 30 29c.188 0 .371-.019.557-.028l1.309-3.199c-.6.143-1.222.227-1.866.227z"/><circle fill="#E91E63" cx="24" cy="10" r="8"/><circle fill="#FFE0B2" cx="30" cy="18" r="8"/><circle fill="#FF80AB" cx="18" cy="18" r="8"/></svg>